<svg xmlns="http://www.w3.org/2000/svg" version="1.1" xmlns:xlink="http://www.w3.org/1999/xlink" width="2000" height="571" viewBox="0 0 2000 571"><svg xml:space="preserve" width="2000" height="571" data-version="2" data-id="lg_Oxeas913oCAOOyAxLW" viewBox="0 0 571 571" x="0" y="0"><rect width="100%" height="100%" fill="transparent"></rect><rect width="448.284" height="448.284" x="-224.142" y="-224.142" fill="none" stroke="#fff" stroke-width="22.5" paint-order="stroke" rx="0" ry="0" transform="translate(285.5 285.5)scale(1.19)"></rect><path fill="#fff" stroke="#fff" stroke-width="7.32" d="M235.15 202.49v148.52h40.99q15.79 0 29.4-5.55 13.61-5.54 23.86-15.62 10.25-10.08 15.79-23.52 5.54-13.44 5.54-29.23 0-15.8-5.71-29.4-5.71-13.61-15.79-23.69-10.08-10.08-23.69-15.79-13.61-5.72-29.4-5.72zm41.66 191.86h-90.38v-235.2h90.38q26.55 0 49.06 8.9 22.51 8.91 39.31 25.04 16.8 16.12 26.38 37.63 9.57 21.5 9.57 46.37 0 25.2-9.4 46.36-9.41 21.17-26.38 37.13t-39.48 24.87q-22.51 8.9-49.06 8.9z" paint-order="stroke"></path></svg></svg>