<svg xmlns="http://www.w3.org/2000/svg" xml:space="preserve" width="1500" height="1500" data-id="lg_qezwUOU4hpDCVpHstD" data-version="1" viewBox="0 0 1500 1500"><path fill="#ddd" stroke="transparent" d="M0 0h1500v1500H0z"/><g data-padding="20"><g transform="translate(-545.03 -558.124)scale(1.68754)"><path fill="#2a2a2a" d="M563.717 704.573a70.594 70.594 0 1 0 0 141.188 70.594 70.594 0 1 0 0-141.188"/><rect width="403.125" height="136.73" x="171.465" y="306.802" fill="none" rx="0" ry="0" transform="translate(478.94 399.6)"/><path fill="#2a2a2a" d="M663.757 812.777q-1.66 0-2.42-.77-.77-.77-.77-2.36v-67.24q0-1.65.77-2.39.76-.74 2.42-.74h21.21q14.77 0 23.63 8.74 8.86 8.75 8.86 27.95 0 19.32-8.86 28.06-8.86 8.75-23.63 8.75Zm6.08-7.98h14.42q10.63 0 17.13-6.94t6.5-21.89q0-10.04-3.07-16.45t-8.39-9.34q-5.32-2.92-12.17-2.92h-14.42Zm85.14 8.58q-13.06 0-19.41-6.83-6.35-6.82-6.35-20.88 0-13.94 6.2-21.18 6.21-7.24 18.26-7.24 10.75 0 16.22 6.97 5.46 6.97 5.46 20.44 0 .6-.62 1.63t-1.47 1.83q-.86.8-1.45.8h-33.15q.65 8.8 4.52 12.85t11.67 4.05q4.37 0 7.54-1.07 3.16-1.06 6.11-2.6.3-.11.89-.41t.82-.3q.65 0 1.51 1.04.86 1.03 1.48 2.3t.62 1.86q0 1.3-2.6 2.9-2.6 1.59-6.94 2.72-4.35 1.12-9.31 1.12m-16.31-32.02h27.3q0-16.55-12.58-16.55-13.53 0-14.72 16.55m67.24 32.01q-6.15 0-10.75-3.58-4.61-3.57-7.12-9.95t-2.51-14.48q0-8.92 2.68-15.27 2.69-6.35 7.54-9.6 4.84-3.25 11.16-3.25 4.55 0 8.07 1.36 3.51 1.36 6.94 3.96v-26.47q0-2.3 4.14-2.3h.47q4.19 0 4.19 2.3v61.15q0 6.85.65 9.9.65 3.04.65 3.33 0 1.3-1.98 1.86-1.98.57-3.69.57-1.18 0-1.89-1.13-.71-1.12-.97-2.27-.27-1.15-.86-3.99-7.5 7.86-16.72 7.86m1.83-7.62q3.49 0 7.24-1.89t6.94-5.38v-28.77q-5.67-4.73-12.94-4.73-7.03.18-10.6 5.14-3.58 4.96-3.58 14.42 0 10.16 3.34 15.68 3.34 5.53 9.6 5.53m57.55 7.62q-6.15 0-10.76-3.58-4.6-3.57-7.12-9.95-2.51-6.38-2.51-14.48 0-8.92 2.69-15.27t7.53-9.6q4.85-3.25 11.17-3.25 4.55 0 8.07 1.36 3.51 1.36 6.94 3.96v-26.47q0-2.3 4.13-2.3h.48q4.19 0 4.19 2.3v61.15q0 6.85.65 9.9.65 3.04.65 3.33 0 1.3-1.98 1.86-1.98.57-3.69.57-1.18 0-1.89-1.13-.71-1.12-.98-2.27-.26-1.15-.85-3.99-7.51 7.86-16.72 7.86m1.83-7.62q3.48 0 7.24-1.89 3.75-1.89 6.94-5.38v-28.77q-5.67-4.73-12.94-4.73-7.03.18-10.61 5.14-3.57 4.96-3.57 14.42 0 10.16 3.34 15.68 3.34 5.53 9.6 5.53m54.83 7.63q-8.04 0-13-3.96t-4.96-11.76q0-8.21 5.02-12.37 5.02-4.17 12.26-5.38 7.23-1.21 17.57-1.39v-4.96q0-3.96-2.68-6.35-2.69-2.4-8.84-2.4-4.66 0-8.18 1.1-3.52 1.09-6.59 2.63-1.3.65-1.59.65-.71 0-1.57-1.04-.86-1.03-1.48-2.33t-.62-1.89q0-1.36 2.81-2.96 2.81-1.59 7.36-2.66 4.55-1.06 9.51-1.06 9.86 0 15.3 4.31 5.44 4.32 5.44 12.12v23.57q0 6.85.62 9.9.62 3.04.62 3.33 0 1.3-1.98 1.86-1.98.57-3.7.57-1.41 0-2.09-1.6-.68-1.59-1.33-4.61l-.24-1.18q-3.25 3.6-7.65 5.73t-10.01 2.13m.47-7.62q5.2 0 8.86-1.89t7.56-5.38v-12.41q-7.8.06-12.82.65t-8.8 2.99q-3.78 2.39-3.78 7.41 0 4.2 2.27 6.41 2.28 2.22 6.71 2.22m47.38 7.2q-2.24 0-3.25-.57-1-.56-1-1.74v-36.87q0-6.85-.65-9.89-.65-3.05-.65-3.34 0-1.3 1.98-1.86t3.75-.56q1.42 0 2.13 1.5.71 1.51 1.24 4.23l.29 1.24q5.62-7.86 12.17-7.86 3.02 0 4.55 1.09 1.54 1.1 1.54 2.93 0 1.77-.62 3.75t-1.45 1.98q-.41 0-1.48-.36-.94-.41-1.89-.62-.94-.2-2.42-.2-2.42 0-4.58 1.42-2.15 1.41-3.63 3.13-1.48 1.71-1.48 1.89v38.4q0 1.18-1 1.74-1.01.57-3.13.57Zm47.8.42q-8.04 0-13-3.96t-4.96-11.76q0-8.21 5.02-12.37 5.02-4.17 12.26-5.38t17.58-1.39v-4.96q0-3.96-2.69-6.35-2.69-2.4-8.83-2.4-4.67 0-8.19 1.1-3.51 1.09-6.58 2.63-1.3.65-1.6.65-.71 0-1.56-1.04-.86-1.03-1.48-2.33t-.62-1.89q0-1.36 2.8-2.96 2.81-1.59 7.36-2.66 4.55-1.06 9.51-1.06 9.87 0 15.3 4.31 5.44 4.32 5.44 12.12v23.57q0 6.85.62 9.9.62 3.04.62 3.33 0 1.3-1.98 1.86-1.98.57-3.69.57-1.42 0-2.1-1.6-.68-1.59-1.33-4.61l-.23-1.18q-3.25 3.6-7.66 5.73-4.4 2.13-10.01 2.13m.47-7.62q5.2 0 8.87-1.89 3.66-1.89 7.56-5.38v-12.41q-7.8.06-12.82.65-5.03.59-8.81 2.99-3.78 2.39-3.78 7.41 0 4.2 2.28 6.41 2.27 2.22 6.7 2.22"/><rect width="48.18" height="89.27" x="348.937" y="330.532" fill="none" rx="0" ry="0" transform="translate(191.18 399.43)"/><path fill="#ddd" d="M550.447 800.727q-1.08 0-1.58-.5t-.5-1.54v-43.9q0-1.08.5-1.56t1.58-.48h13.85q9.64 0 15.43 5.7 5.78 5.71 5.78 18.25 0 12.61-5.78 18.32-5.79 5.71-15.43 5.71Zm3.97-5.21h9.41q6.95 0 11.19-4.53t4.24-14.29q0-6.56-2-10.74-2.01-4.19-5.48-6.1t-7.95-1.91h-9.41Z" paint-order="stroke"/></g><path fill="transparent" stroke="transparent" stroke-width="1.75" d="M269.978 626.622H1250v246.756H269.978z"/></g></svg>